# AST/ASF file generated using VICON BodyLanguage
# -----------------------------------------------
:version 1.10
:name VICON
:units
  mass 1.0
  length 0.45
  angle deg
:documentation
   .ast/.asf automatically generated from VICON data using
   VICON BodyBuilder and BodyLanguage model FoxedUp or BRILLIANT.MOD
:root
   order TX TY TZ RX RY RZ
   axis XYZ
   position 0 0 0  
   orientation 0 0 0 
:bonedata
  begin
     id 1 
     name lhipjoint
     direction 0.54267 -0.795011 0.271047 
     length 2.39899 
     axis 0 0 0  XYZ
  end
  begin
     id 2 
     name lfemur
     direction 0.34202 -0.939693 0  
     length 7.49701  
     axis 0 0 20  XYZ
    dof rx ry rz
    limits (-160.0 20.0)
           (-70.0 70.0)
           (-60.0 70.0)
  end
  begin
     id 3 
     name ltibia
     direction 0.34202 -0.939693 0   
     length 8.1668   
     axis 0 0 20   XYZ
    dof rx
    limits (-10.0 170.0)
  end
  begin
     id 4 
     name lfoot
     direction 0.0736283 -0.202292 0.976554   
     length 2.13544   
     axis -90 7.62852e-016 20   XYZ
    dof rx rz
    limits (-45.0 90.0)
           (-70.0 20.0)
  end
  begin
     id 5 
     name ltoes
     direction 1.53557e-011 -4.22024e-011 1   
     length 1.07411   
     axis -90 7.62852e-016 20   XYZ
    dof rx
    limits (-90.0 20.0)
  end
  begin
     id 6 
     name rhipjoint
     direction -0.538061 -0.797813 0.272002   
     length 2.39057  
     axis 0 0 0  XYZ 
  end
  begin
     id 7 
     name rfemur
     direction -0.34202 -0.939693 0   
     length 7.50152   
     axis 0 0 -20   XYZ
    dof rx ry rz
    limits (-160.0 20.0)
           (-70.0 70.0)
           (-70.0 60.0)
  end
  begin
     id 8 
     name rtibia
     direction -0.34202 -0.939693 0   
     length 8.05793   
     axis 0 0 -20   XYZ
    dof rx
    limits (-10.0 170.0)
 end
 begin
     id 9 
     name rfoot
     direction -0.0765195 -0.210236 0.974652   
     length 2.28698  
     axis -90 -7.62852e-016 -20   XYZ
    dof rx rz
    limits (-45.0 90.0)
           (-20.0 70.0)
  end
  begin
     id 10 
     name rtoes
     direction -1.53542e-011 -4.21847e-011 1   
     length 1.14762   
     axis -90 -7.62852e-016 -20   XYZ
    dof rx
    limits (-90.0 20.0)
  end
  begin
     id 11 
     name lowerback
     direction -0.0217239 0.996592 -0.0795765   
     length 2.08176   
     axis 0 0 0   XYZ
    dof rx ry rz
    limits (-20.0 45.0)
           (-30.0 30.0)
           (-30.0 30.0)
  end
  begin
     id 12 
     name upperback
     direction -0.00563773 0.999651 -0.0258155   
     length 2.08898   
     axis 0 0 0   XYZ
    dof rx ry rz
    limits (-20.0 45.0)
           (-30.0 30.0)
           (-30.0 30.0)
  end
  begin
     id 13 
     name thorax
     direction 0.0032706 0.999923 0.0119599   
     length 2.0968   
     axis 0 0 0   XYZ
    dof rx ry rz
    limits (-20.0 45.0)
           (-30.0 30.0)
           (-30.0 30.0)
  end
  begin
     id 14 
     name lowerneck
     direction -0.0285886 0.99568 0.0883427   
     length 1.81272   
     axis 0 0 0   XYZ
    dof rx ry rz
    limits (-20.0 45.0)
           (-30.0 30.0)
           (-30.0 30.0)
  end
  begin
     id 15 
     name upperneck
     direction 0.0807535 0.97985 -0.18268   
     length 1.82518   
     axis 0 0 0   XYZ
    dof rx ry rz
    limits (-20.0 45.0)
           (-30.0 30.0)
           (-30.0 30.0)
  end
  begin
     id 16
     name head
     direction 0.0236605 0.997053 -0.0729767  
     length 1.84443  
     axis 0 0 0   XYZ
    dof rx ry rz
    limits (-20.0 45.0)
           (-30.0 30.0)
           (-30.0 30.0)
  end
  begin
     id 17 
     name lclavicle
     direction 0.918986 0.39378 -0.0200683  
     length 3.27822  
     axis 0 0 0   XYZ
    dof ry rz
    limits (-20.0 10.0)
           (0.0 20.0)
  end
  begin
     id 18 
     name lhumerus
     direction 1 -4.4897e-011 2.09544e-027   
     length 5.5568   
     axis 180 -30 -90   XYZ
    dof rx ry rz
    limits (-60.0 90.0)
           (-90.0 90.0)
           (-90.0 90.0)
  end
  begin
     id 19
     name lradius
     direction 1 -4.48957e-011 -1.27696e-026   
     length 3.63979   
     axis 180 -30 -90   XYZ
    dof rx
    limits (-10.0 170.0)
  end
  begin
     id 20
     name lwrist
     direction 1 -4.49001e-011 -1.49001e-026   
     length 1.8199   
     axis 9.0955e-015 90 90   XYZ
    dof ry
    limits (-180.0 0.0)
 end
  begin
     id 21 
     name lhand
     direction 1 -4.48709e-011 -2.9758e-026   
     length 0.569419   
     axis 1.90115e-014 90 90   XYZ
    dof rx rz
    limits (-90.0 90.0)
           (-45.0 45.0)
  end
  begin
     id 22 
     name lfingers
     direction 1 -4.49175e-011 -5.96505e-026   
     length 0.45908   
     axis 3.80223e-014 90 90   XYZ
    dof rx
    limits (0.0 90.0)
  end
  begin
     id 23
     name lthumb
     direction 0.707107 -6.34864e-011 0.707107   
     length 0.65915   
     axis -90 45 -3.84942e-014   XYZ
    dof rx rz
    limits (-45.0 45.0)
           (-45.0 45.0)
  end
  begin
     id 24 
     name rclavicle
     direction -0.911913 0.396426 -0.106115   
     length 3.46301  
     axis 0 0 0   XYZ 
    dof ry rz
    limits (-10.0 20.0)
           (-20.0 0.0)
  end
  begin
     id 25 
     name rhumerus
     direction -1 -4.48965e-011 7.78516e-028  
     length 5.34339   
     axis 180 30 90   XYZ
    dof rx ry rz
    limits (-90.0 60.0)
           (-90.0 90.0)
           (-90.0 90.0)
  end
  begin
     id 26 
     name rradius
     direction -1 -4.48948e-011 -5.79823e-027   
     length 3.65101   
     axis 180 30 90   XYZ
    dof rx
    limits (-10.0 170.0)
  end
  begin
     id 27 
     name rwrist
     direction -1 -4.48995e-011 -1.48996e-026   
     length 1.8255   
     axis 9.0955e-015 -90 -90   XYZ
    dof ry
    limits (-180.0 0.0)
  end
  begin
     id 28
     name rhand
     direction -1 -4.48957e-011 -2.97937e-026   
     length 0.694249   
     axis 1.90115e-014 -90 -90   XYZ
    dof rx rz
    limits (-90.0 90.0)
           (-45.0 45.0)
  end
  begin
     id 29
     name rfingers
     direction -1 -4.4898e-011 -5.95943e-026   
     length 0.559721   
     axis 3.80223e-014 -90 -90   XYZ
    dof rx
    limits (0.0 90.0)
  end
  begin
     id 30
     name rthumb
     direction -0.707107 -6.34969e-011 0.707107   
     length 0.803651   
     axis -90 -45 3.84942e-014   XYZ
    dof rx rz
    limits (-45.0 45.0)
           (-45.0 45.0)
  end
:hierarchy
  begin
    root lhipjoint rhipjoint lowerback
    lhipjoint lfemur
    lfemur ltibia
    ltibia lfoot
    lfoot ltoes
    rhipjoint rfemur
    rfemur rtibia
    rtibia rfoot
    rfoot rtoes
    lowerback upperback
    upperback thorax
    thorax lowerneck lclavicle rclavicle
    lowerneck upperneck
    upperneck head
    lclavicle lhumerus
    lhumerus lradius
    lradius lwrist
    lwrist lhand lthumb
    lhand lfingers
    rclavicle rhumerus
    rhumerus rradius
    rradius rwrist
    rwrist rhand rthumb
    rhand rfingers
  end

#!OML:ASF H:\Terrain\Walking\May29\JustinRory\rory.ASF
:FULLY-SPECIFIED
:DEGREES
16
root 12.7585 17.9726 -16.4297 -0.261089 3.26229 11.4102
lowerback 1.53852 -0.403045 -11.2006
upperback 1.30373 -0.644429 -2.02164
thorax 0.600203 -0.397283 4.17187
lowerneck -14.3955 -2.23313 -3.30565
upperneck 23.3214 -2.39967 0.389757
head 9.82107 -1.35816 0.389441
rclavicle -4.34841e-016 -3.22031e-014
rhumerus -34.1539 -12.3651 -78.2883
rradius 37.024
rwrist -5.94374
rhand -17.2162 27.7943
rfingers 7.12502
rthumb 9.02669 -1.99261
lclavicle -4.34841e-016 -3.22031e-014
lhumerus -23.8424 -8.17253 85.9983
lradius 58.631
lwrist 19.1202
lhand -26.7194 21.9472
lfingers 7.12502
lthumb -0.149049 51.9269
rfemur -25.2697 8.76531 3.96437
rtibia 20.0054
rfoot -9.22031 -12.8916
rtoes -6.3549
lfemur 13.5573 -2.90486 -32.0514
ltibia 13.1366
lfoot -7.03771 -5.3157
ltoes -13.6825
17
root 12.7421 17.9435 -16.2498 -0.642076 3.51124 11.7988
lowerback 1.78371 -0.400446 -11.5299
upperback 1.35599 -0.675087 -2.12377
thorax 0.525811 -0.412488 4.24946
lowerneck -14.3012 -2.25148 -3.23587
upperneck 23.5207 -2.43698 0.349086
head 9.87323 -1.37519 0.359066
rclavicle 5.19325e-015 1.23246e-014
rhumerus -33.8995 -12.2358 -78.47
rradius 37.1874
rwrist -6.01203
rhand -17.8963 28.6879
rfingers 7.12502
rthumb 8.37044 -1.12621
lclavicle 5.19325e-015 1.23246e-014
lhumerus -24.1531 -7.7952 86.157
lradius 58.9839
lwrist 18.3419
lhand -29.8522 16.4185
lfingers 7.12502
lthumb -3.17474 46.3746
rfemur -25.0242 8.23297 3.99521
rtibia 21.2294
rfoot -7.35291 -11.9866
rtoes -8.40289
lfemur 13.9815 -2.82345 -32.3653
ltibia 14.322
lfoot -6.9565 -5.80898
ltoes -17.2433
18
root 12.7226 17.9278 -16.0799 -0.802941 3.65349 11.6256
lowerback 1.83375 -0.435665 -11.2558
upperback 1.37363 -0.724259 -2.06057
thorax 0.520007 -0.435678 4.16489
lowerneck -14.623 -2.20983 -3.51344
upperneck 24.0725 -2.35433 0.574186
head 10.1383 -1.33789 0.49014
rclavicle -1.9133e-014 -4.01545e-014
rhumerus -33.5055 -11.7414 -78.7933
rradius 37.5537
rwrist -6.39082
rhand -18.1753 29.1495
rfingers 7.12502
rthumb 8.10112 -0.675202
lclavicle -1.9133e-014 -4.01545e-014
lhumerus -24.2368 -7.6838 86.119
lradius 59.0672
lwrist 18.0482
lhand -25.5514 20.8216
lfingers 7.12502
lthumb 0.979029 50.7991
rfemur -25.1932 8.4112 4.34618
rtibia 22.3499
rfoot -4.79448 -11.316
rtoes -4.4656
lfemur 13.7629 -2.71714 -32.0199
ltibia 16.0734
lfoot -6.71282 -6.27111
ltoes -18.8267
19
root 12.7018 17.9204 -15.9102 -0.895511 3.75701 11.1079
lowerback 1.85059 -0.467105 -10.6184
upperback 1.32243 -0.764571 -1.86093
thorax 0.454528 -0.44737 4.0216
lowerneck -14.275 -2.18203 -3.50382
upperneck 23.9981 -2.26458 0.317475
head 10.0401 -1.32598 0.413646
rclavicle 2.5345e-015 1.43125e-014
rhumerus -33.0503 -11.276 -79.005
rradius 37.8574
rwrist -6.69642
rhand -18.1144 29.6821
rfingers 7.12502
rthumb 8.15994 -0.140358
lclavicle 2.5345e-015 1.43125e-014
lhumerus -24.1316 -7.91531 86.0596
lradius 58.9797
lwrist 18.379
lhand -28.1589 20.4389
lfingers 7.12502
lthumb -1.53936 50.4131
rfemur -25.5548 8.28275 5.09058
rtibia 23.4689
rfoot -2.68259 -9.81989
rtoes 1.14799
lfemur 13.1805 -2.58186 -31.2736
ltibia 18.2651
lfoot -6.62863 -6.53019
ltoes -20.729
20
root 12.6773 17.9175 -15.7429 -1.05313 3.89132 10.4894
lowerback 2.03392 -0.482533 -9.93606
upperback 1.18868 -0.808831 -1.63168
thorax 0.209225 -0.450654 3.88595
lowerneck -13.9853 -2.21199 -3.57873
upperneck 24.1488 -2.26295 0.174337
head 10.0386 -1.35034 0.378637
rclavicle 1.05604e-014 1.07344e-014
rhumerus -32.6018 -11.278 -79.1
rradius 37.9095
rwrist -6.5572
rhand -18.0743 30.1861
rfingers 7.12502
rthumb 8.1986 0.365158
lclavicle 1.05604e-014 1.07344e-014
lhumerus -24.3012 -8.53149 86.0364
lradius 58.9625
lwrist 19.3508
lhand -29.4876 19.6097
lfingers 7.12502
lthumb -2.82264 49.5708
rfemur -25.7877 7.99816 6.04756
rtibia 24.5525
rfoot -1.38868 -8.68661
rtoes 5.75206
lfemur 12.3704 -2.51185 -30.4036
ltibia 20.9464
lfoot -6.52177 -6.68562
ltoes -21.597
21
root 12.6534 17.9106 -15.5824 -1.32339 4.06334 9.779
lowerback 2.24126 -0.533162 -9.26498
upperback 1.20235 -0.888112 -1.32065
thorax 0.110633 -0.484336 3.84013
lowerneck -14.4999 -2.19281 -3.7222
upperneck 24.802 -2.16128 0.119167
head 10.3744 -1.32719 0.388688
rclavicle -1.62755e-015 -1.59028e-014
rhumerus -31.9261 -11.3421 -79.1797
rradius 37.9555
rwrist -6.25687
rhand -18.082 30.2733
rfingers 7.12502
rthumb 8.19124 0.452114
lclavicle -1.62755e-015 -1.59028e-014
lhumerus -24.668 -8.29483 86.2177
lradius 59.0592
lwrist 19.6122
lhand -29.4388 19.509
lfingers 7.12502
lthumb -2.77546 49.4706
rfemur -25.6672 7.64643 7.18744
rtibia 25.6381
rfoot -0.676702 -8.33856
rtoes 11.2719
lfemur 11.4735 -2.35779 -29.3858
ltibia 23.9188
lfoot -6.10292 -6.96457
ltoes -21.6634
22
root 12.6352 17.9062 -15.4335 -1.57312 4.23426 8.55162
lowerback 2.37072 -0.556966 -8.02477
upperback 1.28127 -0.904375 -0.850452
thorax 0.106772 -0.490496 3.63794
lowerneck -14.5374 -2.1571 -3.37093
upperneck 24.8361 -2.02535 -0.532748
head 10.3801 -1.30907 0.115622
rclavicle 1.38777e-014 -1.39149e-014
rhumerus -31.1702 -10.9801 -79.2781
rradius 38.0537
rwrist -6.23983
rhand -18.502 30.2849
rfingers 7.12502
rthumb 7.78588 0.448225
lclavicle 1.38777e-014 -1.39149e-014
lhumerus -24.9269 -7.18179 86.5208
lradius 59.1784
lwrist 18.8497
lhand -28.2521 19.7433
lfingers 7.12502
lthumb -1.62936 49.7168
rfemur -25.5411 7.57429 8.80474
rtibia 26.7515
rfoot -0.591597 -8.32954
rtoes 16.1083
lfemur 10.36 -2.23842 -27.7964
ltibia 27.0418
lfoot -5.15447 -7.23837
ltoes -19.3325
23
root 12.6207 17.9065 -15.2888 -1.91896 4.30932 7.2549
lowerback 2.70229 -0.44117 -6.577
upperback 1.34521 -0.744182 -0.44463
thorax -0.0497683 -0.401312 3.24852
lowerneck -14.4578 -2.28259 -3.24182
upperneck 24.8298 -2.12819 -0.945096
head 10.3582 -1.39245 -0.0649215
rclavicle 8.54774e-015 -1.35174e-014
rhumerus -30.3313 -10.6991 -79.3936
rradius 37.9469
rwrist -6.49999
rhand -19.1212 30.7697
rfingers 7.12502
rthumb 7.1882 0.911777
lclavicle 8.54774e-015 -1.35174e-014
lhumerus -25.0496 -6.71724 86.844
lradius 59.015
lwrist 18.1175
lhand -26.9211 19.9139
lfingers 7.12502
lthumb -0.343903 49.8934
rfemur -25.3867 7.5027 10.5034
rtibia 27.8256
rfoot -0.883735 -7.79062
rtoes 18.9374
lfemur 9.14203 -2.05886 -26.1491
ltibia 30.2921
lfoot -3.62669 -7.49386
ltoes -14.497
24
root 12.6058 17.8966 -15.1329 -2.4129 4.27868 6.30455
lowerback 3.02444 -0.333694 -5.55614
upperback 1.49248 -0.592022 -0.112205
thorax -0.103559 -0.323251 3.01798
lowerneck -14.6954 -2.35878 -3.47291
upperneck 25.1727 -2.16938 -0.912646
head 10.5351 -1.43206 -0.0257568
rclavicle 1.90088e-014 9.54166e-015
rhumerus -29.2721 -10.6691 -79.5267
rradius 37.63
rwrist -6.51077
rhand -19.3953 31.3714
rfingers 7.12502
rthumb 6.92361 1.50465
lclavicle 1.90088e-014 9.54166e-015
lhumerus -25.358 -6.24536 87.2865
lradius 58.6931
lwrist 17.2646
lhand -28.8528 19.5527
lfingers 7.12502
lthumb -2.20956 49.521
rfemur -24.8714 6.79308 12.0327
rtibia 28.787
rfoot -0.893808 -6.4292
rtoes 18.5395
lfemur 8.09417 -1.58782 -24.821
ltibia 33.5452
lfoot -1.88431 -7.77805
ltoes -10.1542
25
root 12.5872 17.8857 -14.9781 -2.7512 4.10186 5.30311
lowerback 3.01396 -0.308384 -4.67865
upperback 1.59766 -0.530353 0.297648
thorax -0.00110831 -0.293929 2.9456
lowerneck -14.388 -2.24736 -3.1379
upperneck 25.1785 -1.9859 -1.38118
head 10.4652 -1.37173 -0.220633
rclavicle -5.25537e-015 8.74653e-015
rhumerus -28.3347 -10.3577 -79.7414
rradius 37.5343
rwrist -6.41075
rhand -19.4939 31.6764
rfingers 7.12502
rthumb 6.82836 1.80655
lclavicle -5.25537e-015 8.74653e-015
lhumerus -25.6013 -5.44804 87.5183
lradius 58.2112
lwrist 16.7865
lhand -29.1502 19.5733
lfingers 7.12502
lthumb -2.49679 49.5385
rfemur -24.4472 5.9474 13.6584
rtibia 29.6888
rfoot -0.742937 -5.26434
rtoes 14.96
lfemur 6.94287 -0.993552 -23.3898
ltibia 36.6348
lfoot -0.135643 -7.63792
ltoes -7.79362
26
root 12.5667 17.8873 -14.8326 -2.87547 4.0373 4.52048
lowerback 2.97902 -0.296227 -4.04703
upperback 1.58466 -0.495544 0.639423
thorax -0.0014423 -0.273995 2.94161
lowerneck -14.0278 -2.16378 -2.89091
upperneck 25.1947 -1.87501 -1.64404
head 10.3939 -1.32785 -0.33655
rclavicle -1.18028e-015 4.77083e-015
rhumerus -27.7522 -9.92516 -79.9115
rradius 37.9351
rwrist -6.40688
rhand -19.3136 31.4314
rfingers 7.12502
rthumb 7.00239 1.56722
lclavicle -1.18028e-015 4.77083e-015
lhumerus -25.5683 -4.82721 87.657
lradius 57.3356
lwrist 16.5493
lhand -28.8888 19.5116
lfingers 7.12502
lthumb -2.24428 49.4796
rfemur -24.263 5.42101 14.8599
rtibia 30.5414
rfoot -1.14065 -4.89917
rtoes 13.1232
lfemur 5.52427 -0.573803 -22.2173
ltibia 39.5526
lfoot 1.68944 -7.50691
ltoes -7.14644
27
root 12.5473 17.8899 -14.6807 -3.05872 4.37515 4.45256
lowerback 3.12992 -0.278283 -4.0064
upperback 1.60017 -0.476444 0.705258
thorax -0.0712564 -0.263204 2.98723
lowerneck -14.1712 -2.23381 -3.00821
upperneck 25.6012 -1.97469 -1.48443
head 10.5751 -1.36939 -0.279034
rclavicle 3.65267e-015 -7.95139e-015
rhumerus -27.0526 -10.019 -79.9707
rradius 37.9783
rwrist -6.11131
rhand -19.2003 31.5536
rfingers 7.12502
rthumb 7.11183 1.69311
lclavicle 3.65267e-015 -7.95139e-015
lhumerus -25.5938 -3.92927 88.3001
lradius 56.3391
lwrist 15.6512
lhand -28.3877 19.8363
lfingers 7.12502
lthumb -1.76035 49.8088
rfemur -23.8434 4.87666 15.131
rtibia 31.3073
rfoot -1.90638 -4.83489
rtoes 12.9048
lfemur 4.26904 -0.469521 -21.8829
ltibia 42.3056
lfoot 3.52663 -7.69381
ltoes -6.90835
28
root 12.5252 17.8915 -14.5289 -3.34712 4.88316 4.45417
lowerback 3.39888 -0.313269 -4.10583
upperback 1.60447 -0.537029 0.75764
thorax -0.210629 -0.291244 3.10146
lowerneck -13.943 -2.37492 -2.83968
upperneck 25.7207 -2.14124 -1.79251
head 10.5698 -1.46649 -0.43758
rclavicle 1.30577e-014 -4.77083e-015
rhumerus -26.1578 -10.1758 -80.0495
rradius 37.6241
rwrist -5.85111
rhand -19.441 32.3283
rfingers 7.12502
rthumb 6.87945 2.46005
lclavicle 1.30577e-014 -4.77083e-015
lhumerus -25.8408 -2.81174 89.1101
lradius 55.4143
lwrist 14.915
lhand -27.8859 20.3689
lfingers 7.12502
lthumb -1.27567 50.3449
rfemur -23.2375 4.30151 15.3142
rtibia 31.9781
rfoot -2.65194 -4.85338
rtoes 12.2666
lfemur 3.22576 -0.542405 -21.6609
ltibia 44.8753
lfoot 5.01481 -7.65607
ltoes -7.48402
29
root 12.4981 17.8904 -14.3873 -3.58733 5.23874 4.19536
lowerback 3.54769 -0.316572 -4.16038
upperback 1.65937 -0.547326 0.974931
thorax -0.233469 -0.297897 3.35803
lowerneck -13.7022 -2.50166 -2.75707
upperneck 25.7465 -2.28423 -2.03575
head 10.5287 -1.55221 -0.553643
rclavicle 1.98785e-015 -1.66979e-014
rhumerus -25.246 -10.1543 -80.1539
rradius 37.6176
rwrist -5.70093
rhand -19.708 32.9601
rfingers 7.12502
rthumb 6.62167 3.08367
lclavicle 1.98785e-015 -1.66979e-014
lhumerus -25.3557 -2.83664 89.1882
lradius 53.9995
lwrist 15.7386
lhand -27.7588 20.307
lfingers 7.12502
lthumb -1.15292 50.2837
rfemur -22.7308 3.99676 15.8047
rtibia 32.5344
rfoot -3.30609 -5.06716
rtoes 11.5528
lfemur 2.09445 -0.534195 -21.1438
ltibia 47.2995
lfoot 5.88718 -7.19281
ltoes -8.21812
